<svg xmlns="http://www.w3.org/2000/svg" viewBox="0 0 163.51 40.29"><defs><style>.cls-1{fill:#434d56;}</style></defs><title>Recurso 9</title><g id="Capa_2" data-name="Capa 2"><g id="Capa_1-2" data-name="Capa 1"><path class="cls-1" d="M12.61,0A10.67,10.67,0,0,1,23.36,11.23c.14,7-6,13.14-12.6,13A10.7,10.7,0,0,1,0,13C-.14,6,5.89-.1,12.61,0ZM12.4,2.59C7.16,2.48,2.61,7.3,2.74,12.86c0,5,3.43,8.79,8.15,8.79,5.25.1,9.8-4.79,9.7-10.35C20.59,6.34,17.16,2.59,12.4,2.59Z"/><path class="cls-1" d="M57.23.43H59.9l-3.56,20.9H67.1l-.45,2.48H53.26Z"/><path class="cls-1" d="M73.76.43h4.63V23.81H73.76Z"/><path class="cls-1" d="M97.35,0a11.14,11.14,0,0,1,10,5.81l-3.49,2.55a7.33,7.33,0,0,0-6.48-3.93c-4.21,0-7.29,3.26-7.29,7.72s3.08,7.65,7.29,7.65a7.33,7.33,0,0,0,6.48-3.93l3.49,2.55a11,11,0,0,1-10,5.81,11.91,11.91,0,0,1-12-12.11A12,12,0,0,1,97.35,0Z"/><path class="cls-1" d="M113.64.43h4.62V14.49c0,3.4,2.06,5.31,5,5.31s5-1.91,5-5.31V.43h4.62V14.14c0,6.2-4.11,10.09-9.59,10.09s-9.59-3.89-9.59-10.09Z"/><path class="cls-1" d="M158,8.65a8.32,8.32,0,0,1,.73,3.47c0,4.5-3.12,7.68-7.26,7.68s-7.26-3.18-7.26-7.68,3.08-7.69,7.26-7.69a7.23,7.23,0,0,1,3.14.7l3.21-3.31A11.47,11.47,0,0,0,151.44,0a12,12,0,0,0-12,12.12,12,12,0,1,0,24,0,11.81,11.81,0,0,0-2.14-6.93Z"/><path class="cls-1" d="M43.34,11.27A5.89,5.89,0,0,0,46.29,6c0-3.37-2.37-5.56-6.07-5.56H33.13l-1.65,9.74H29.81v2.5h1.24L29.16,23.81h9.56c4.69,0,8-2.91,8-6.95A6,6,0,0,0,43.34,11.27Zm-8-8.36h4.35c2.37,0,3.77,1.17,3.77,3.26,0,2.44-1.71,4-4.31,4h-5Zm3.19,18.42H32.24l1.47-8.65h5.86c2.71,0,4.35,1.56,4.35,4.11C43.92,19.52,41.83,21.33,38.58,21.33Z"/><path class="cls-1" d="M84.41,36.25h-4l-1,1.72h-1.1l5-8.64h.34L85.81,38h-1Zm-1.15-5-2.33,4.12h3.26Z"/><path class="cls-1" d="M92.43,32.59a2.8,2.8,0,0,0-.55-.05,2,2,0,0,0-2,1.75L89.25,38h-1l1.07-6.27h.9l-.11.68a2.36,2.36,0,0,1,1.79-.76,2,2,0,0,1,.63.1Z"/><path class="cls-1" d="M100.75,31.7l-1.47,8.59h-1l.53-3.07A2.8,2.8,0,0,1,94,35.09a3.36,3.36,0,0,1,3.26-3.53,2.72,2.72,0,0,1,2.34,1.21l.18-1.07Zm-2,1.33a1.85,1.85,0,0,0-1.41-.56A2.46,2.46,0,0,0,95,35a2.22,2.22,0,0,0,.56,1.57A1.92,1.92,0,0,0,97,37.2a2.6,2.6,0,0,0,2.29-2.8A1.87,1.87,0,0,0,98.74,33Z"/><path class="cls-1" d="M103.29,35.29l.6-3.59h1l-.63,3.72a2.91,2.91,0,0,0,0,.38,1.37,1.37,0,0,0,1.45,1.4,1.67,1.67,0,0,0,1.66-1.47l.67-4h1l-.69,4.06a2.84,2.84,0,0,1-.91,1.71,2.56,2.56,0,0,1-1.74.64,2.22,2.22,0,0,1-2.34-2.28A2.71,2.71,0,0,1,103.29,35.29Z"/><path class="cls-1" d="M112.1,31.7h1L112,38h-1Zm.88-3.12a.72.72,0,0,1,.72.72A.7.7,0,0,1,113,30a.7.7,0,0,1-.71-.72A.72.72,0,0,1,113,28.58Z"/><path class="cls-1" d="M116.76,35.92a1.56,1.56,0,0,0,0,.35c0,.71.5.95,1.36.95l.57,0-.15.85a4.14,4.14,0,0,1-.7.06c-1.18,0-2-.47-2-1.7a2.41,2.41,0,0,1,0-.5l.56-3.32h-1l.13-.89h1l.29-1.71h1l-.3,1.71h1.9l-.14.89h-1.91Z"/><path class="cls-1" d="M122,35.14a2,2,0,0,0,2.12,2.06,2.83,2.83,0,0,0,1.86-.76l.49.67a3.42,3.42,0,0,1-2.44,1A2.94,2.94,0,0,1,121,35a3.4,3.4,0,0,1,3.29-3.48,2.57,2.57,0,0,1,2.62,2.78,2.15,2.15,0,0,1-.15.8Zm4-.88a1.62,1.62,0,0,0-1.7-1.8,2.21,2.21,0,0,0-2.18,1.8Z"/><path class="cls-1" d="M132.59,31.56A2.82,2.82,0,0,1,135.13,33l-.74.5a2.07,2.07,0,0,0-1.83-1.07A2.42,2.42,0,0,0,130.2,35a2.08,2.08,0,0,0,2.06,2.23,2.35,2.35,0,0,0,1.85-.9l.62.59a2.88,2.88,0,0,1-2.5,1.21,3,3,0,0,1-3-3.07A3.42,3.42,0,0,1,132.59,31.56Z"/><path class="cls-1" d="M138.76,35.92a1.56,1.56,0,0,0,0,.35c0,.71.5.95,1.36.95l.57,0-.15.85a4,4,0,0,1-.69.06c-1.19,0-2.05-.47-2.05-1.7a2.41,2.41,0,0,1,.05-.5l.56-3.32h-1l.12-.89h1l.29-1.71h1l-.3,1.71h1.91l-.15.89h-1.91Z"/><path class="cls-1" d="M143.33,35.29l.6-3.59h1l-.64,3.72a3.32,3.32,0,0,0,0,.38,1.36,1.36,0,0,0,1.44,1.4,1.66,1.66,0,0,0,1.66-1.47l.67-4h1l-.69,4.06a2.84,2.84,0,0,1-.91,1.71,2.54,2.54,0,0,1-1.74.64,2.22,2.22,0,0,1-2.34-2.28A2.71,2.71,0,0,1,143.33,35.29Z"/><path class="cls-1" d="M155.2,32.59a2.74,2.74,0,0,0-.55-.05,2,2,0,0,0-2,1.75L152,38h-1l1.07-6.27H153l-.11.68a2.39,2.39,0,0,1,1.8-.76,2.08,2.08,0,0,1,.63.1Z"/><path class="cls-1" d="M163.51,31.7,162.44,38h-.9l.15-.84a2.8,2.8,0,0,1-4.92-2,3.42,3.42,0,0,1,3.29-3.58,2.66,2.66,0,0,1,2.32,1.21l.17-1.07Zm-3.39.77a2.49,2.49,0,0,0-2.36,2.6,2.18,2.18,0,0,0,.56,1.54,1.88,1.88,0,0,0,1.44.59,2.52,2.52,0,0,0,2.29-2.73A1.86,1.86,0,0,0,160.12,32.47Z"/><path class="cls-1" d="M77.47,28.89h.88l-5,9h-.87Z"/></g></g></svg>